<svg xmlns="http://www.w3.org/2000/svg" version="1.1" xmlns:xlink="http://www.w3.org/1999/xlink" xmlns:svgjs="http://svgjs.dev/svgjs" width="1000" height="1000" viewBox="0 0 1000 1000"><rect width="1000" height="1000" fill="#ffffff"></rect><g transform="matrix(0.7,0,0,0.7,148.58761906105656,386.4911814969545)"><svg viewBox="0 0 399 84" data-background-color="#ffffff" preserveAspectRatio="xMidYMid meet" height="210" width="1000" xmlns="http://www.w3.org/2000/svg" xmlns:xlink="http://www.w3.org/1999/xlink"><g id="tight-bounds" transform="matrix(1,0,0,1,3.4876317547043527,23.179746075969575)"><svg viewBox="0 0 395.52 59.795522027095906" height="59.795522027095906" width="395.52"><g><svg viewBox="0 0 512.6571174431617 77.50455086574654" height="59.795522027095906" width="395.52"><g><rect width="6.417627120163332" height="77.50455086574654" x="93.91941932780647" y="0" fill="#b19dd0" opacity="1" stroke-width="0" stroke="transparent" fill-opacity="1" class="rect-o-0" data-fill-palette-color="primary" rx="1%" id="o-0" data-palette-color="#b19dd0"></rect></g><g transform="matrix(1,0,0,1,117.13711744316177,0.19279739021329334)"><svg viewBox="0 0 395.52 77.11895608531995" height="77.11895608531995" width="395.52"><g><svg viewBox="0 0 395.52 77.11895608531995" height="77.11895608531995" width="395.52"><g><svg viewBox="0 0 395.52 77.11895608531995" height="77.11895608531995" width="395.52"><g transform="matrix(1,0,0,1,0,0)"><svg width="395.52" viewBox="1.5999999046325684 -35.60000228881836 199.25 35.849998474121094" height="77.11895608531995" data-palette-color="#b19dd0"><svg></svg><g class="undefined-text-0" data-fill-palette-color="primary" id="text-0"><path xmlns="http://www.w3.org/2000/svg" d="M35.85-23.65h-10.55c-0.567-0.933-1.34-1.65-2.32-2.15-0.987-0.5-2.147-0.75-3.48-0.75v0c-2.467 0-4.407 0.8-5.82 2.4-1.42 1.6-2.13 3.75-2.13 6.45v0c0 3.033 0.76 5.34 2.28 6.92 1.513 1.587 3.72 2.38 6.62 2.38v0c3.433 0 5.883-1.55 7.35-4.65v0h-9.85v-7.05h18.3v9.5c-0.767 1.867-1.89 3.617-3.37 5.25-1.487 1.633-3.363 2.973-5.63 4.02-2.267 1.053-4.85 1.58-7.75 1.58v0c-3.533 0-6.657-0.757-9.37-2.27-2.72-1.52-4.82-3.64-6.3-6.36-1.487-2.713-2.23-5.82-2.23-9.32v0c0-3.467 0.743-6.56 2.23-9.28 1.48-2.713 3.57-4.83 6.27-6.35 2.7-1.513 5.817-2.27 9.35-2.27v0c4.433 0 8.1 1.067 11 3.2 2.9 2.133 4.7 5.05 5.4 8.75zM69.45 0h-10.95l-7-13h-1.05v13h-9.8v-35.25h15.45c2.833 0 5.233 0.493 7.2 1.48 1.967 0.98 3.45 2.327 4.45 4.04 1 1.72 1.5 3.647 1.5 5.78v0c0 2.4-0.657 4.507-1.97 6.32-1.32 1.82-3.247 3.113-5.78 3.88v0zM50.45-27.05v7.35h4.85c1.333 0 2.333-0.317 3-0.95 0.667-0.633 1-1.55 1-2.75v0c0-1.133-0.34-2.027-1.02-2.68-0.687-0.647-1.68-0.97-2.98-0.97v0zM73.7-35.25h9.8v35.25h-9.8zM89.1-35.25h9.8v35.25h-9.8zM137.2 0h-11.85l-11.05-15.45v15.45h-9.8v-35.25h9.8v15.2l10.95-15.2h11.3l-12.95 17.1zM163.35-27.4h-12.75v5.75h11.25v7.45h-11.25v6.35h12.75v7.85h-22.55v-35.25h22.55zM200.85-35.25v35.25h-9.8l-13.05-19.7v19.7h-9.8v-35.25h9.8l13.05 19.95v-19.95z" fill="#b19dd0" fill-rule="nonzero" stroke="none" stroke-width="1" stroke-linecap="butt" stroke-linejoin="miter" stroke-miterlimit="10" stroke-dasharray="" stroke-dashoffset="0" font-family="none" font-weight="none" font-size="none" text-anchor="none" style="mix-blend-mode: normal" data-fill-palette-color="primary" opacity="1"></path></g></svg></g></svg></g></svg></g></svg></g><g transform="matrix(1,0,0,1,0,0.19279739021329334)"><svg viewBox="0 0 77.11934833261449 77.11895608531995" height="77.11895608531995" width="77.11934833261449"><g><svg xmlns="http://www.w3.org/2000/svg" viewBox="2.0053701400756836 2 96.00048828125 96" x="0" y="0" height="77.11895608531995" width="77.11934833261449" class="icon-icon-0" data-fill-palette-color="accent" id="icon-0"><path d="M50 68A33 33 0 1 0 17 35 33.037 33.037 0 0 0 50 68ZM50 8A27 27 0 1 1 23 35 27.031 27.031 0 0 1 50 8ZM98.006 95a3 3 0 0 1-3 3H5.005a3 3 0 1 1 0-6H95.006A3 3 0 0 1 98.006 95Z" fill="#b19dd0" data-fill-palette-color="accent"></path></svg></g></svg></g></svg></g><defs></defs></svg><rect width="395.52" height="59.795522027095906" fill="none" stroke="none" visibility="hidden"></rect></g></svg></g></svg>